<?xml version="1.0" encoding="UTF-8" standalone="no"?>
<!DOCTYPE svg PUBLIC "-//W3C//DTD SVG 20010904//EN"
              "http://www.w3.org/TR/2001/REC-SVG-20010904/DTD/svg10.dtd">

<svg xmlns="http://www.w3.org/2000/svg"
     width="19.2222in" height="5.33333in"
     viewBox="0 0 1384 384">
  <path id="Selección"
        fill="none" stroke="black" stroke-width="1"
        d="M 0.00,0.00
           C 0.00,0.00 0.00,384.00 0.00,384.00
             0.00,384.00 1384.00,384.00 1384.00,384.00
             1384.00,384.00 1384.00,0.00 1384.00,0.00
             1384.00,0.00 0.00,0.00 0.00,0.00 Z
           M 625.00,73.00
           C 618.51,82.06 616.02,79.77 616.00,91.00
             616.00,91.00 616.00,123.00 616.00,123.00
             616.00,123.00 617.00,139.00 617.00,139.00
             617.00,139.00 617.00,155.00 617.00,155.00
             617.03,172.53 624.97,164.47 625.00,182.00
             625.00,182.00 625.00,222.00 625.00,222.00
             625.00,222.00 624.00,239.00 624.00,239.00
             624.00,239.00 624.00,261.00 624.00,261.00
             624.00,263.36 624.42,267.19 622.43,268.84
             620.73,270.24 609.84,272.23 607.00,272.88
             607.00,272.88 569.00,281.00 569.00,281.00
             569.00,281.00 569.00,222.00 569.00,222.00
             569.00,222.00 568.00,207.00 568.00,207.00
             568.00,207.00 568.00,176.00 568.00,176.00
             567.97,171.53 568.25,170.30 565.00,167.00
             565.00,167.00 565.00,280.00 565.00,280.00
             565.00,280.00 550.00,280.95 550.00,280.95
             550.00,280.95 536.00,280.04 536.00,280.04
             536.00,280.04 526.00,280.91 526.00,280.91
             526.00,280.91 505.00,279.00 505.00,279.00
             505.00,279.00 483.00,279.00 483.00,279.00
             483.00,279.00 467.00,278.00 467.00,278.00
             467.00,278.00 452.00,278.00 452.00,278.00
             452.00,278.00 452.00,253.00 452.00,253.00
             452.00,253.00 451.00,237.00 451.00,237.00
             451.00,237.00 451.00,170.00 451.00,170.00
             435.81,170.33 382.05,177.79 366.00,181.00
             360.16,182.17 345.06,183.54 341.74,188.14
             339.72,190.94 340.01,194.72 340.00,198.00
             340.00,198.00 339.00,218.00 339.00,218.00
             339.00,218.00 338.00,249.00 338.00,249.00
             338.00,249.00 337.00,265.00 337.00,265.00
             336.99,268.52 337.38,276.98 336.11,279.87
             334.28,284.03 329.90,283.95 326.00,284.00
             326.00,284.00 320.00,284.00 320.00,284.00
             317.70,284.00 313.59,284.38 312.02,282.40
             310.85,280.92 311.01,277.82 311.00,276.00
             311.00,276.00 311.00,253.00 311.00,253.00
             311.00,253.00 312.00,238.00 312.00,238.00
             312.00,238.00 312.00,216.00 312.00,216.00
             312.00,216.00 313.00,194.00 313.00,194.00
             303.08,193.87 297.75,193.21 288.00,196.70
             285.49,197.59 281.50,199.08 280.02,201.39
             278.78,203.34 279.00,206.73 279.00,209.00
             279.00,209.00 279.00,266.00 279.00,266.00
             278.99,269.38 278.66,280.15 276.40,282.40
             274.60,284.20 261.14,284.96 258.00,285.00
             254.47,285.04 249.47,285.74 247.87,281.85
             246.42,278.91 247.95,271.74 247.87,268.00
             247.87,268.00 249.00,234.00 249.00,234.00
             249.00,234.00 250.00,217.00 250.00,217.00
             250.01,211.34 249.44,205.48 251.00,200.00
             232.84,202.56 213.34,209.87 196.00,215.67
             196.00,215.67 157.00,229.06 157.00,229.06
             157.00,229.06 132.00,239.55 132.00,239.55
             132.00,239.55 107.00,248.87 107.00,248.87
             107.00,248.87 94.00,255.22 94.00,255.22
             94.00,255.22 67.00,267.78 67.00,267.78
             58.92,271.60 53.23,275.77 44.04,276.00
             44.04,276.00 44.04,262.00 44.04,262.00
             44.04,262.00 45.00,252.00 45.00,252.00
             45.00,252.00 46.00,219.00 46.00,219.00
             46.00,219.00 47.85,208.31 47.85,208.31
             47.85,208.31 56.00,205.41 56.00,205.41
             56.00,205.41 74.00,202.58 74.00,202.58
             74.00,202.58 162.00,189.42 162.00,189.42
             162.00,189.42 220.00,181.72 220.00,181.72
             220.00,181.72 325.00,169.17 325.00,169.17
             325.00,169.17 363.00,165.83 363.00,165.83
             363.00,165.83 449.00,158.00 449.00,158.00
             449.00,158.00 467.00,157.00 467.00,157.00
             467.00,157.00 531.00,154.00 531.00,154.00
             522.40,150.02 502.97,151.02 493.00,151.00
             493.00,151.00 476.00,150.00 476.00,150.00
             476.00,150.00 402.00,150.00 402.00,150.00
             402.00,150.00 387.00,151.00 387.00,151.00
             387.00,151.00 353.00,151.00 353.00,151.00
             353.00,151.00 336.00,152.00 336.00,152.00
             336.00,152.00 312.00,152.00 312.00,152.00
             312.00,152.00 297.00,153.00 297.00,153.00
             297.00,153.00 223.00,157.91 223.00,157.91
             223.00,157.91 161.00,162.17 161.00,162.17
             161.00,162.17 82.00,173.25 82.00,173.25
             82.00,173.25 61.00,176.93 61.00,176.93
             57.82,177.28 53.16,178.43 50.15,176.93
             45.75,175.18 45.34,161.67 48.65,158.60
             50.74,156.66 54.33,157.01 57.00,157.00
             57.00,157.00 64.00,157.00 64.00,157.00
             64.00,157.00 79.00,155.96 79.00,155.96
             79.00,155.96 95.00,155.96 95.00,155.96
             95.00,155.96 107.00,155.00 107.00,155.00
             107.00,155.00 144.00,154.00 144.00,154.00
             144.00,154.00 159.00,153.00 159.00,153.00
             159.00,153.00 174.00,153.00 174.00,153.00
             174.00,153.00 185.00,152.04 185.00,152.04
             185.00,152.04 200.00,152.04 200.00,152.04
             200.00,152.04 212.00,151.04 212.00,151.04
             212.00,151.04 228.00,151.04 228.00,151.04
             228.00,151.04 244.00,150.00 244.00,150.00
             244.00,150.00 258.00,150.00 258.00,150.00
             258.00,150.00 273.00,149.00 273.00,149.00
             273.00,149.00 312.00,148.00 312.00,148.00
             312.00,148.00 327.00,147.00 327.00,147.00
             327.00,147.00 341.00,147.00 341.00,147.00
             341.00,147.00 352.00,146.04 352.00,146.04
             352.00,146.04 367.00,146.04 367.00,146.04
             367.00,146.04 379.00,145.04 379.00,145.04
             379.00,145.04 395.00,145.04 395.00,145.04
             395.00,145.04 411.00,144.00 411.00,144.00
             411.00,144.00 429.00,144.00 429.00,144.00
             429.00,144.00 429.00,113.00 429.00,113.00
             429.00,113.00 430.00,97.00 430.00,97.00
             430.00,97.00 430.00,82.00 430.00,82.00
             429.98,71.85 425.87,69.20 419.00,62.00
             421.39,59.13 428.10,52.75 432.00,53.01
             435.90,53.26 434.24,55.98 445.00,56.00
             445.00,56.00 477.00,56.00 477.00,56.00
             477.00,56.00 493.00,57.00 493.00,57.00
             493.00,57.00 563.00,57.00 563.00,57.00
             574.75,56.78 569.83,46.50 581.00,49.64
             584.18,50.53 589.75,54.04 593.00,55.75
             593.00,55.75 625.00,73.00 625.00,73.00 Z
           M 85.00,91.00
           C 85.00,91.00 76.00,92.00 76.00,92.00
             75.24,90.44 75.04,89.60 73.71,88.29
             69.74,84.39 64.72,85.88 61.70,90.06
             56.30,97.54 60.00,109.86 67.73,111.01
             72.72,111.75 74.92,106.42 77.37,105.03
             79.49,103.89 82.68,104.70 85.00,105.03
             83.92,115.12 77.73,119.19 68.00,118.98
             64.30,118.91 61.16,118.45 58.02,116.30
             52.71,112.68 50.47,106.19 50.09,100.00
             49.69,93.46 51.85,85.78 57.09,81.56
             60.53,78.78 63.71,78.11 68.00,78.02
             77.80,77.81 82.70,81.34 85.00,91.00 Z
           M 321.00,92.00
           C 317.76,85.39 310.78,83.47 305.65,89.34
             302.19,93.29 301.49,99.17 303.26,104.00
             306.81,113.67 320.19,115.59 322.00,105.00
             322.00,105.00 313.00,105.00 313.00,105.00
             313.00,105.00 313.00,98.00 313.00,98.00
             313.00,98.00 331.00,98.00 331.00,98.00
             331.00,98.00 331.00,106.00 331.00,106.00
             330.99,108.92 331.31,112.22 329.40,114.66
             323.65,122.01 306.58,121.55 300.04,115.78
             288.03,105.16 291.00,78.00 313.00,78.00
             315.75,78.00 318.41,77.95 321.00,79.01
             324.00,80.23 332.44,87.43 328.36,90.98
             326.92,92.23 322.88,91.99 321.00,92.00 Z
           M 350.00,78.33
           C 356.79,77.57 363.41,77.51 368.81,82.39
             377.52,90.25 377.08,109.05 367.91,116.44
             363.56,119.95 359.32,120.12 354.00,119.99
             330.98,119.42 329.75,83.38 350.00,78.33 Z
           M 410.00,91.00
           C 410.00,91.00 401.00,91.00 401.00,91.00
             399.63,88.32 398.38,86.20 395.00,85.91
             392.21,85.67 388.68,87.81 390.00,90.22
             391.15,92.30 395.84,93.49 398.00,94.14
             404.62,96.14 410.22,98.17 410.89,106.00
             412.52,124.88 382.73,123.69 379.71,111.02
             378.71,106.86 382.30,105.22 385.79,106.60
             388.03,107.48 389.07,109.60 391.21,110.90
             392.35,111.60 393.65,112.07 395.00,112.13
             397.53,112.23 401.74,110.30 401.23,107.20
             400.75,104.33 395.32,103.26 393.00,102.58
             386.70,100.71 381.17,98.40 380.23,91.00
             379.15,82.61 385.33,78.23 393.00,78.02
             396.16,77.93 400.13,77.89 403.00,79.31
             408.09,81.84 409.51,85.73 410.00,91.00 Z
           M 100.00,79.00
           C 100.00,79.00 100.00,119.00 100.00,119.00
             100.00,119.00 91.00,119.00 91.00,119.00
             91.00,119.00 91.00,79.00 91.00,79.00
             91.00,79.00 100.00,79.00 100.00,79.00 Z
           M 137.00,79.00
           C 137.00,79.00 137.00,86.00 137.00,86.00
             137.00,86.00 115.00,86.00 115.00,86.00
             115.00,86.00 115.00,95.00 115.00,95.00
             115.00,95.00 135.00,95.00 135.00,95.00
             135.00,95.00 135.00,102.00 135.00,102.00
             135.00,102.00 115.00,102.00 115.00,102.00
             115.00,102.00 115.00,112.00 115.00,112.00
             115.00,112.00 137.00,112.00 137.00,112.00
             137.00,112.00 137.00,119.00 137.00,119.00
             137.00,119.00 107.00,119.00 107.00,119.00
             107.00,119.00 107.00,79.00 107.00,79.00
             107.00,79.00 137.00,79.00 137.00,79.00 Z
           M 167.00,103.00
           C 167.00,103.00 168.00,79.00 168.00,79.00
             168.00,79.00 176.00,79.00 176.00,79.00
             176.00,79.00 176.00,119.00 176.00,119.00
             173.39,119.00 169.46,119.28 167.18,117.98
             163.80,116.05 154.57,100.10 153.00,96.00
             153.00,96.00 152.00,119.00 152.00,119.00
             152.00,119.00 144.00,119.00 144.00,119.00
             144.00,119.00 144.00,79.00 144.00,79.00
             144.00,79.00 151.62,79.57 151.62,79.57
             151.62,79.57 156.95,86.00 156.95,86.00
             156.95,86.00 167.00,103.00 167.00,103.00 Z
           M 211.00,79.00
           C 211.00,79.00 211.00,86.00 211.00,86.00
             211.00,86.00 192.00,86.00 192.00,86.00
             192.00,86.00 192.00,95.00 192.00,95.00
             192.00,95.00 209.00,95.00 209.00,95.00
             209.00,95.00 209.00,102.00 209.00,102.00
             209.00,102.00 192.00,102.00 192.00,102.00
             192.00,102.00 192.00,119.00 192.00,119.00
             192.00,119.00 184.00,119.00 184.00,119.00
             184.00,119.00 184.00,79.00 184.00,79.00
             184.00,79.00 211.00,79.00 211.00,79.00 Z
           M 226.17,79.00
           C 226.17,79.00 226.17,105.00 226.17,105.00
             227.14,108.85 229.67,112.25 234.00,111.95
             237.85,111.68 240.13,108.54 240.89,105.00
             240.89,105.00 240.89,79.00 240.89,79.00
             240.89,79.00 250.00,79.00 250.00,79.00
             250.00,79.00 250.00,101.00 250.00,101.00
             249.98,105.59 249.71,112.17 246.57,115.83
             241.41,121.73 226.53,121.62 221.28,115.83
             217.73,111.99 218.01,107.87 218.00,103.00
             218.00,103.00 218.00,79.00 218.00,79.00
             218.00,79.00 226.17,79.00 226.17,79.00 Z
           M 288.00,79.00
           C 288.00,79.00 288.00,86.00 288.00,86.00
             288.00,86.00 266.00,86.00 266.00,86.00
             266.00,86.00 266.00,95.00 266.00,95.00
             266.00,95.00 286.00,95.00 286.00,95.00
             286.00,95.00 286.00,102.00 286.00,102.00
             286.00,102.00 266.00,102.00 266.00,102.00
             266.00,102.00 266.00,112.00 266.00,112.00
             266.00,112.00 288.00,112.00 288.00,112.00
             288.00,112.00 288.00,119.00 288.00,119.00
             288.00,119.00 258.00,119.00 258.00,119.00
             258.00,119.00 258.00,79.00 258.00,79.00
             258.00,79.00 288.00,79.00 288.00,79.00 Z
           M 457.00,79.00
           C 457.00,79.00 456.00,121.00 456.00,121.00
             456.00,121.00 455.00,142.00 455.00,142.00
             455.00,142.00 490.00,145.00 490.00,145.00
             493.11,137.53 491.99,128.95 492.00,121.00
             492.00,121.00 493.00,106.00 493.00,106.00
             493.05,101.71 493.67,93.81 490.99,90.42
             489.01,87.90 484.03,86.63 481.00,85.72
             474.41,83.73 463.15,79.55 457.00,79.00 Z
           M 355.00,85.77
           C 340.36,87.94 342.71,110.61 354.00,112.14
             367.84,114.02 368.66,93.01 361.78,87.72
             359.58,86.04 357.61,85.92 355.00,85.77 Z
           M 507.00,90.00
           C 507.00,90.00 506.00,118.00 506.00,118.00
             506.00,118.00 505.00,133.00 505.00,133.00
             504.99,141.79 503.94,144.93 514.00,145.00
             514.00,145.00 546.00,145.00 546.00,145.00
             552.62,145.00 559.54,145.57 566.00,144.00
             566.00,144.00 565.00,108.00 565.00,108.00
             564.98,104.64 564.34,91.50 562.40,89.40
             560.26,87.09 555.01,87.99 552.00,88.00
             552.00,88.00 519.00,89.00 519.00,89.00
             519.00,89.00 507.00,90.00 507.00,90.00 Z
           M 756.00,173.00
           C 756.00,173.00 739.00,175.80 739.00,175.80
             736.99,176.20 733.28,177.16 731.39,176.39
             728.57,175.24 727.62,170.59 723.67,166.04
             718.20,159.72 711.21,156.93 703.00,156.59
             677.72,155.55 666.58,174.29 665.74,197.00
             665.44,205.34 666.61,216.50 670.38,224.00
             672.95,229.14 678.31,234.93 683.00,238.20
             693.43,245.49 707.81,244.12 719.00,239.55
             726.14,236.63 730.84,234.28 731.00,226.00
             731.00,226.00 731.00,217.00 731.00,217.00
             731.00,217.00 702.00,217.00 702.00,217.00
             702.00,217.00 702.00,195.00 702.00,195.00
             702.00,195.00 758.00,195.00 758.00,195.00
             758.00,195.00 758.00,239.00 758.00,239.00
             757.98,250.03 753.39,251.48 744.00,256.24
             733.74,261.45 720.58,265.86 709.00,266.00
             698.89,266.11 689.80,266.38 680.00,263.25
             649.78,253.61 637.65,226.87 638.00,197.00
             638.40,162.84 661.44,134.06 697.00,134.00
             697.00,134.00 708.00,134.00 708.00,134.00
             726.73,134.09 745.35,143.20 753.13,161.00
             755.08,165.47 755.76,168.15 756.00,173.00 Z
           M 876.00,136.00
           C 876.00,136.00 876.00,158.00 876.00,158.00
             876.00,158.00 807.00,158.00 807.00,158.00
             807.00,158.00 807.00,186.00 807.00,186.00
             807.00,186.00 871.00,186.00 871.00,186.00
             871.00,186.00 871.00,208.00 871.00,208.00
             871.00,208.00 807.00,208.00 807.00,208.00
             807.00,208.00 807.00,242.00 807.00,242.00
             807.00,242.00 878.00,242.00 878.00,242.00
             878.00,242.00 878.00,264.00 878.00,264.00
             878.00,264.00 781.00,264.00 781.00,264.00
             781.00,264.00 781.00,136.00 781.00,136.00
             781.00,136.00 876.00,136.00 876.00,136.00 Z
           M 1015.00,264.00
           C 1015.00,264.00 992.00,264.00 992.00,264.00
             990.32,263.97 988.11,264.07 986.70,263.01
             985.01,261.74 983.61,257.08 982.80,255.00
             981.14,250.78 977.22,238.09 973.78,236.02
             971.74,234.80 968.34,235.00 966.00,235.00
             966.00,235.00 934.00,235.00 934.00,235.00
             931.35,235.01 927.75,234.65 925.70,236.60
             923.59,238.60 919.19,252.37 917.81,256.00
             917.07,257.93 915.93,261.79 914.30,263.01
             912.89,264.07 910.68,263.97 909.00,264.00
             909.00,264.00 887.00,264.00 887.00,264.00
             887.00,264.00 899.58,230.00 899.58,230.00
             899.58,230.00 924.80,165.00 924.80,165.00
             924.80,165.00 932.42,145.00 932.42,145.00
             932.42,145.00 936.65,136.99 936.65,136.99
             936.65,136.99 944.00,136.00 944.00,136.00
             944.00,136.00 958.00,136.00 958.00,136.00
             958.00,136.00 964.30,137.60 964.30,137.60
             964.30,137.60 968.40,146.00 968.40,146.00
             968.40,146.00 976.00,165.00 976.00,165.00
             976.00,165.00 1001.60,229.00 1001.60,229.00
             1001.60,229.00 1015.00,264.00 1015.00,264.00 Z
           M 1102.00,208.00
           C 1102.00,208.00 1113.91,218.00 1113.91,218.00
             1113.91,218.00 1130.05,241.00 1130.05,241.00
             1130.05,241.00 1144.00,264.00 1144.00,264.00
             1144.00,264.00 1120.00,264.00 1120.00,264.00
             1117.63,264.00 1114.39,264.22 1112.32,262.98
             1109.46,261.26 1099.87,245.80 1097.33,242.00
             1092.15,234.22 1081.94,217.81 1074.00,213.84
             1069.51,211.59 1060.13,211.02 1055.00,211.00
             1055.00,211.00 1055.00,264.00 1055.00,264.00
             1055.00,264.00 1029.00,264.00 1029.00,264.00
             1029.00,264.00 1029.00,136.00 1029.00,136.00
             1029.00,136.00 1093.00,136.00 1093.00,136.00
             1101.00,136.01 1110.99,137.29 1118.00,141.36
             1136.47,152.08 1138.72,181.81 1124.70,196.91
             1118.49,203.60 1110.37,205.56 1102.00,208.00 Z
           M 1184.00,136.00
           C 1184.00,136.00 1184.00,186.00 1184.00,186.00
             1184.00,186.00 1234.00,186.00 1234.00,186.00
             1234.00,186.00 1234.00,136.00 1234.00,136.00
             1234.00,136.00 1260.00,136.00 1260.00,136.00
             1260.00,136.00 1260.00,264.00 1260.00,264.00
             1260.00,264.00 1234.00,264.00 1234.00,264.00
             1234.00,264.00 1234.00,208.00 1234.00,208.00
             1234.00,208.00 1184.00,208.00 1184.00,208.00
             1184.00,208.00 1184.00,264.00 1184.00,264.00
             1184.00,264.00 1158.00,264.00 1158.00,264.00
             1158.00,264.00 1158.00,136.00 1158.00,136.00
             1158.00,136.00 1184.00,136.00 1184.00,136.00 Z
           M 1055.00,158.00
           C 1055.00,158.00 1055.00,189.00 1055.00,189.00
             1055.00,189.00 1075.00,189.00 1075.00,189.00
             1075.00,189.00 1085.00,188.09 1085.00,188.09
             1090.21,187.73 1093.97,188.63 1098.96,186.00
             1108.50,180.99 1107.95,166.88 1100.90,161.70
             1096.74,158.64 1092.70,159.29 1088.00,158.83
             1088.00,158.83 1055.00,158.00 1055.00,158.00 Z
           M 949.00,169.00
           C 949.00,169.00 933.00,213.00 933.00,213.00
             933.00,213.00 967.00,213.00 967.00,213.00
             967.00,213.00 955.80,183.00 955.80,183.00
             955.80,183.00 949.00,169.00 949.00,169.00 Z
           M 1160.00,296.00
           C 1156.11,301.78 1155.12,303.75 1148.00,304.00
             1150.04,295.44 1152.00,296.01 1160.00,296.00 Z
           M 268.00,319.00
           C 268.00,319.00 259.00,319.00 259.00,319.00
             257.63,316.32 256.38,314.20 253.00,313.91
             250.21,313.67 246.68,315.81 248.00,318.22
             249.15,320.30 253.84,321.49 256.00,322.14
             262.62,324.14 268.22,326.17 268.89,334.00
             270.52,352.88 240.73,351.69 237.71,339.02
             236.71,334.86 240.30,333.22 243.79,334.60
             246.03,335.48 247.07,337.60 249.21,338.90
             250.35,339.60 251.65,340.07 253.00,340.13
             255.53,340.23 259.74,338.30 259.23,335.20
             258.75,332.33 253.32,331.26 251.00,330.58
             244.70,328.71 239.17,326.40 238.23,319.00
             237.15,310.61 243.33,306.23 251.00,306.02
             254.16,305.93 258.13,305.89 261.00,307.31
             266.09,309.84 267.51,313.73 268.00,319.00 Z
           M 548.00,306.33
           C 554.79,305.57 561.41,305.51 566.81,310.39
             575.52,318.25 575.08,337.05 565.91,344.44
             561.56,347.95 557.32,348.12 552.00,347.99
             528.98,347.42 527.75,311.38 548.00,306.33 Z
           M 686.00,319.00
           C 686.00,319.00 677.00,320.00 677.00,320.00
             676.24,318.44 676.04,317.60 674.71,316.29
             670.74,312.39 665.72,313.88 662.70,318.06
             657.30,325.54 661.00,337.86 668.73,339.01
             673.72,339.75 675.92,334.42 678.37,333.03
             680.49,331.89 683.68,332.70 686.00,333.03
             684.92,343.12 678.73,347.19 669.00,346.98
             665.30,346.91 662.16,346.45 659.02,344.30
             653.71,340.68 651.47,334.19 651.09,328.00
             650.69,321.46 652.85,313.78 658.09,309.56
             661.53,306.78 664.71,306.11 669.00,306.02
             678.80,305.81 683.70,309.34 686.00,319.00 Z
           M 956.00,306.33
           C 962.79,305.57 969.41,305.51 974.81,310.39
             983.52,318.25 983.08,337.05 973.91,344.44
             969.56,347.95 965.32,348.12 960.00,347.99
             936.98,347.42 935.75,311.38 956.00,306.33 Z
           M 1299.00,319.00
           C 1299.00,319.00 1290.00,320.00 1290.00,320.00
             1289.24,318.44 1289.04,317.60 1287.71,316.29
             1283.74,312.39 1278.72,313.88 1275.70,318.06
             1270.30,325.53 1273.99,337.85 1281.72,339.00
             1286.75,339.75 1288.89,334.43 1291.37,333.03
             1293.49,331.89 1296.68,332.70 1299.00,333.03
             1297.92,343.12 1291.73,347.19 1282.00,346.98
             1278.30,346.91 1275.16,346.45 1272.02,344.30
             1266.71,340.68 1264.47,334.19 1264.09,328.00
             1263.69,321.46 1265.85,313.78 1271.09,309.56
             1274.53,306.78 1277.71,306.11 1282.00,306.02
             1291.80,305.81 1296.70,309.34 1299.00,319.00 Z
           M 1318.00,306.33
           C 1324.79,305.57 1331.41,305.51 1336.81,310.39
             1345.52,318.25 1345.08,337.05 1335.91,344.44
             1331.56,347.95 1327.32,348.12 1322.00,347.99
             1298.98,347.42 1297.75,311.38 1318.00,306.33 Z
           M 72.00,307.00
           C 72.00,307.00 72.00,314.00 72.00,314.00
             72.00,314.00 50.00,314.00 50.00,314.00
             50.00,314.00 50.00,323.00 50.00,323.00
             50.00,323.00 70.00,323.00 70.00,323.00
             70.00,323.00 70.00,330.00 70.00,330.00
             70.00,330.00 50.00,330.00 50.00,330.00
             50.00,330.00 50.00,340.00 50.00,340.00
             50.00,340.00 72.00,340.00 72.00,340.00
             72.00,340.00 72.00,347.00 72.00,347.00
             72.00,347.00 42.00,347.00 42.00,347.00
             42.00,347.00 42.00,307.00 42.00,307.00
             42.00,307.00 72.00,307.00 72.00,307.00 Z
           M 97.00,331.00
           C 100.53,325.23 103.04,313.84 104.00,307.00
             104.00,307.00 117.00,307.00 117.00,307.00
             117.00,307.00 117.00,347.00 117.00,347.00
             117.00,347.00 109.00,347.00 109.00,347.00
             109.00,347.00 109.00,321.00 109.00,321.00
             107.09,326.18 105.95,331.61 104.79,337.00
             104.34,339.09 103.44,343.89 102.07,345.40
             99.94,347.75 95.11,347.35 93.43,344.69
             91.79,342.11 88.30,325.61 88.00,322.00
             88.00,322.00 87.00,347.00 87.00,347.00
             87.00,347.00 78.00,347.00 78.00,347.00
             78.00,347.00 78.00,307.00 78.00,307.00
             78.00,307.00 90.44,308.02 90.44,308.02
             90.44,308.02 93.42,315.00 93.42,315.00
             93.42,315.00 97.00,331.00 97.00,331.00 Z
           M 133.00,332.00
           C 133.00,332.00 133.00,347.00 133.00,347.00
             133.00,347.00 125.00,347.00 125.00,347.00
             125.00,347.00 125.00,307.00 125.00,307.00
             130.93,307.00 146.36,305.88 150.79,309.01
             156.73,313.20 157.66,325.26 149.96,330.15
             145.93,332.70 137.82,332.00 133.00,332.00 Z
           M 185.00,329.00
           C 191.09,333.84 194.38,340.23 198.00,347.00
             195.16,347.00 189.68,347.39 187.32,345.98
             180.52,341.89 182.85,332.76 170.00,330.00
             170.00,330.00 170.00,347.00 170.00,347.00
             170.00,347.00 162.00,347.00 162.00,347.00
             162.00,347.00 162.00,307.00 162.00,307.00
             167.58,307.00 184.83,306.18 188.96,308.31
             196.41,312.17 197.94,325.63 185.00,329.00 Z
           M 232.00,307.00
           C 232.00,307.00 232.00,314.00 232.00,314.00
             232.00,314.00 210.00,314.00 210.00,314.00
             210.00,314.00 210.00,323.00 210.00,323.00
             210.00,323.00 230.00,323.00 230.00,323.00
             230.00,323.00 230.00,330.00 230.00,330.00
             230.00,330.00 210.00,330.00 210.00,330.00
             210.00,330.00 210.00,340.00 210.00,340.00
             210.00,340.00 232.00,340.00 232.00,340.00
             232.00,340.00 232.00,347.00 232.00,347.00
             232.00,347.00 202.00,347.00 202.00,347.00
             202.00,347.00 202.00,307.00 202.00,307.00
             202.00,307.00 232.00,307.00 232.00,307.00 Z
           M 312.00,347.00
           C 309.66,347.00 304.54,347.38 302.70,346.01
             299.17,343.37 301.71,338.37 293.00,338.02
             290.41,337.91 286.70,337.73 284.70,339.60
             282.90,341.27 282.40,344.55 280.35,346.01
             278.51,347.32 274.26,347.00 272.00,347.00
             272.00,347.00 282.81,317.00 282.81,317.00
             284.28,313.21 285.40,307.84 290.05,307.15
             296.91,306.14 297.93,310.81 300.00,316.00
             300.00,316.00 312.00,347.00 312.00,347.00 Z
           M 329.00,347.00
           C 329.00,347.00 329.00,307.00 329.00,307.00
             335.63,307.00 349.59,305.86 354.91,309.23
             364.78,315.48 364.78,338.52 354.91,344.77
             349.59,348.14 335.63,347.00 329.00,347.00 Z
           M 399.00,307.00
           C 399.00,307.00 399.00,314.00 399.00,314.00
             399.00,314.00 377.00,314.00 377.00,314.00
             377.00,314.00 377.00,323.00 377.00,323.00
             377.00,323.00 397.00,323.00 397.00,323.00
             397.00,323.00 397.00,330.00 397.00,330.00
             397.00,330.00 377.00,330.00 377.00,330.00
             377.00,330.00 377.00,340.00 377.00,340.00
             377.00,340.00 399.00,340.00 399.00,340.00
             399.00,340.00 399.00,347.00 399.00,347.00
             399.00,347.00 369.00,347.00 369.00,347.00
             369.00,347.00 369.00,307.00 369.00,307.00
             369.00,307.00 399.00,307.00 399.00,307.00 Z
           M 455.00,347.00
           C 452.66,347.00 447.54,347.38 445.70,346.01
             442.17,343.37 444.71,338.37 436.00,338.02
             433.41,337.91 429.70,337.73 427.70,339.60
             425.90,341.27 425.40,344.55 423.35,346.01
             421.51,347.32 417.26,347.00 415.00,347.00
             415.00,347.00 425.81,317.00 425.81,317.00
             427.28,313.21 428.40,307.84 433.05,307.15
             439.91,306.14 440.93,310.81 443.00,316.00
             443.00,316.00 455.00,347.00 455.00,347.00 Z
           M 467.00,332.00
           C 467.00,332.00 467.00,347.00 467.00,347.00
             467.00,347.00 459.00,347.00 459.00,347.00
             459.00,347.00 459.00,307.00 459.00,307.00
             464.93,307.00 480.36,305.88 484.79,309.01
             490.73,313.20 491.66,325.26 483.96,330.15
             479.93,332.70 471.82,332.00 467.00,332.00 Z
           M 519.00,329.00
           C 525.09,333.84 528.38,340.23 532.00,347.00
             529.16,347.00 523.68,347.39 521.32,345.98
             514.52,341.89 516.85,332.76 504.00,330.00
             504.00,330.00 504.00,347.00 504.00,347.00
             504.00,347.00 496.00,347.00 496.00,347.00
             496.00,347.00 496.00,307.00 496.00,307.00
             501.58,307.00 518.83,306.18 522.96,308.31
             530.41,312.17 531.94,325.63 519.00,329.00 Z
           M 593.00,335.00
           C 593.00,335.00 599.67,316.00 599.67,316.00
             599.67,316.00 603.51,308.02 603.51,308.02
             603.51,308.02 612.00,307.00 612.00,307.00
             612.00,307.00 602.33,335.00 602.33,335.00
             602.33,335.00 597.49,345.98 597.49,345.98
             597.49,345.98 588.00,347.00 588.00,347.00
             588.00,347.00 575.00,307.00 575.00,307.00
             575.00,307.00 583.49,308.02 583.49,308.02
             583.49,308.02 587.33,316.00 587.33,316.00
             587.33,316.00 593.00,335.00 593.00,335.00 Z
           M 646.00,307.00
           C 646.00,307.00 646.00,314.00 646.00,314.00
             646.00,314.00 624.00,314.00 624.00,314.00
             624.00,314.00 624.00,323.00 624.00,323.00
             624.00,323.00 644.00,323.00 644.00,323.00
             644.00,323.00 644.00,330.00 644.00,330.00
             644.00,330.00 624.00,330.00 624.00,330.00
             624.00,330.00 624.00,340.00 624.00,340.00
             624.00,340.00 646.00,340.00 646.00,340.00
             646.00,340.00 646.00,347.00 646.00,347.00
             646.00,347.00 616.00,347.00 616.00,347.00
             616.00,347.00 616.00,307.00 616.00,307.00
             616.00,307.00 646.00,307.00 646.00,307.00 Z
           M 701.00,307.00
           C 701.00,307.00 701.00,323.00 701.00,323.00
             701.00,323.00 716.00,323.00 716.00,323.00
             716.00,323.00 716.00,307.00 716.00,307.00
             716.00,307.00 725.00,307.00 725.00,307.00
             725.00,307.00 725.00,347.00 725.00,347.00
             725.00,347.00 716.00,347.00 716.00,347.00
             716.00,347.00 716.00,330.00 716.00,330.00
             716.00,330.00 701.00,330.00 701.00,330.00
             701.00,330.00 701.00,347.00 701.00,347.00
             701.00,347.00 693.00,347.00 693.00,347.00
             693.00,347.00 693.00,307.00 693.00,307.00
             693.00,307.00 701.00,307.00 701.00,307.00 Z
           M 769.00,347.00
           C 766.66,347.00 761.54,347.38 759.70,346.01
             756.17,343.37 758.71,338.37 750.00,338.02
             747.41,337.91 743.70,337.73 741.70,339.60
             739.90,341.27 739.40,344.55 737.35,346.01
             735.51,347.32 731.26,347.00 729.00,347.00
             729.00,347.00 739.81,317.00 739.81,317.00
             741.28,313.21 742.40,307.84 747.05,307.15
             753.91,306.14 754.93,310.81 757.00,316.00
             757.00,316.00 769.00,347.00 769.00,347.00 Z
           M 791.00,331.00
           C 794.53,325.23 797.04,313.84 798.00,307.00
             798.00,307.00 811.00,307.00 811.00,307.00
             811.00,307.00 811.00,347.00 811.00,347.00
             811.00,347.00 803.00,347.00 803.00,347.00
             803.00,347.00 803.00,321.00 803.00,321.00
             801.09,326.18 799.95,331.61 798.79,337.00
             798.34,339.09 797.44,343.89 796.07,345.40
             793.94,347.75 789.11,347.35 787.43,344.69
             785.79,342.11 782.30,325.61 782.00,322.00
             782.00,322.00 781.00,347.00 781.00,347.00
             781.00,347.00 772.00,347.00 772.00,347.00
             772.00,347.00 772.00,307.00 772.00,307.00
             772.00,307.00 784.44,308.02 784.44,308.02
             784.44,308.02 787.42,315.00 787.42,315.00
             787.42,315.00 791.00,331.00 791.00,331.00 Z
           M 827.00,307.00
           C 827.00,307.00 827.00,347.00 827.00,347.00
             827.00,347.00 818.00,347.00 818.00,347.00
             818.00,347.00 818.00,307.00 818.00,307.00
             818.00,307.00 827.00,307.00 827.00,307.00 Z
           M 864.00,307.00
           C 864.00,307.00 864.00,314.00 864.00,314.00
             864.00,314.00 842.00,314.00 842.00,314.00
             842.00,314.00 842.00,323.00 842.00,323.00
             842.00,323.00 862.00,323.00 862.00,323.00
             862.00,323.00 862.00,330.00 862.00,330.00
             862.00,330.00 842.00,330.00 842.00,330.00
             842.00,330.00 842.00,340.00 842.00,340.00
             842.00,340.00 864.00,340.00 864.00,340.00
             864.00,340.00 864.00,347.00 864.00,347.00
             864.00,347.00 834.00,347.00 834.00,347.00
             834.00,347.00 834.00,307.00 834.00,307.00
             834.00,307.00 864.00,307.00 864.00,307.00 Z
           M 894.00,331.00
           C 894.00,331.00 895.00,307.00 895.00,307.00
             895.00,307.00 903.00,307.00 903.00,307.00
             903.00,307.00 903.00,347.00 903.00,347.00
             900.39,347.00 896.46,347.28 894.18,345.98
             890.80,344.05 881.57,328.10 880.00,324.00
             880.00,324.00 879.00,347.00 879.00,347.00
             879.00,347.00 871.00,347.00 871.00,347.00
             871.00,347.00 871.00,307.00 871.00,307.00
             871.00,307.00 878.62,307.57 878.62,307.57
             878.62,307.57 883.95,314.00 883.95,314.00
             883.95,314.00 894.00,331.00 894.00,331.00 Z
           M 940.00,307.00
           C 940.00,307.00 940.00,314.00 940.00,314.00
             940.00,314.00 928.00,314.00 928.00,314.00
             928.00,314.00 928.00,347.00 928.00,347.00
             928.00,347.00 919.00,347.00 919.00,347.00
             919.00,347.00 919.00,314.00 919.00,314.00
             919.00,314.00 908.00,314.00 908.00,314.00
             908.00,314.00 908.00,307.00 908.00,307.00
             908.00,307.00 940.00,307.00 940.00,307.00 Z
           M 1010.00,307.00
           C 1010.00,307.00 1010.00,323.00 1010.00,323.00
             1010.00,323.00 1025.00,323.00 1025.00,323.00
             1025.00,323.00 1025.00,307.00 1025.00,307.00
             1025.00,307.00 1034.00,307.00 1034.00,307.00
             1034.00,307.00 1034.00,347.00 1034.00,347.00
             1034.00,347.00 1025.00,347.00 1025.00,347.00
             1025.00,347.00 1025.00,330.00 1025.00,330.00
             1025.00,330.00 1010.00,330.00 1010.00,330.00
             1010.00,330.00 1010.00,347.00 1010.00,347.00
             1010.00,347.00 1002.00,347.00 1002.00,347.00
             1002.00,347.00 1002.00,307.00 1002.00,307.00
             1002.00,307.00 1010.00,307.00 1010.00,307.00 Z
           M 1050.00,307.00
           C 1050.00,307.00 1050.00,347.00 1050.00,347.00
             1050.00,347.00 1041.00,347.00 1041.00,347.00
             1041.00,347.00 1041.00,307.00 1041.00,307.00
             1041.00,307.00 1050.00,307.00 1050.00,307.00 Z
           M 1057.00,347.00
           C 1057.00,347.00 1057.00,307.00 1057.00,307.00
             1063.63,307.00 1077.59,305.86 1082.91,309.23
             1092.78,315.48 1092.78,338.52 1082.91,344.77
             1077.59,348.14 1063.63,347.00 1057.00,347.00 Z
           M 1120.00,329.00
           C 1125.88,333.68 1128.98,339.22 1132.00,346.00
             1135.64,340.12 1141.27,323.44 1144.20,316.00
             1146.24,310.83 1147.15,306.16 1153.96,307.15
             1158.81,307.86 1159.83,313.04 1161.40,317.00
             1161.40,317.00 1173.00,347.00 1173.00,347.00
             1170.66,347.00 1165.54,347.38 1163.70,346.01
             1160.17,343.37 1162.71,338.37 1154.00,338.02
             1151.41,337.91 1147.70,337.73 1145.70,339.60
             1143.90,341.27 1143.40,344.55 1141.35,346.01
             1139.32,347.46 1132.66,347.01 1130.00,347.00
             1127.64,347.00 1124.39,347.22 1122.32,345.98
             1115.52,341.89 1117.85,332.76 1105.00,330.00
             1105.00,330.00 1105.00,347.00 1105.00,347.00
             1105.00,347.00 1097.00,347.00 1097.00,347.00
             1097.00,347.00 1097.00,307.00 1097.00,307.00
             1102.58,307.00 1119.83,306.18 1123.96,308.31
             1131.41,312.17 1132.94,325.63 1120.00,329.00 Z
           M 1185.17,307.00
           C 1185.17,307.00 1185.17,333.00 1185.17,333.00
             1186.14,336.85 1188.67,340.25 1193.00,339.95
             1196.85,339.68 1199.13,336.54 1199.89,333.00
             1199.89,333.00 1199.89,307.00 1199.89,307.00
             1199.89,307.00 1209.00,307.00 1209.00,307.00
             1209.00,307.00 1209.00,329.00 1209.00,329.00
             1208.98,333.59 1208.71,340.17 1205.57,343.83
             1200.41,349.73 1185.53,349.62 1180.28,343.83
             1176.73,339.99 1177.01,335.87 1177.00,331.00
             1177.00,331.00 1177.00,307.00 1177.00,307.00
             1177.00,307.00 1185.17,307.00 1185.17,307.00 Z
           M 1226.00,307.00
           C 1226.00,307.00 1226.00,340.00 1226.00,340.00
             1226.00,340.00 1245.00,340.00 1245.00,340.00
             1245.00,340.00 1245.00,347.00 1245.00,347.00
             1245.00,347.00 1217.00,347.00 1217.00,347.00
             1217.00,347.00 1217.00,307.00 1217.00,307.00
             1217.00,307.00 1226.00,307.00 1226.00,307.00 Z
           M 1259.00,307.00
           C 1259.00,307.00 1259.00,347.00 1259.00,347.00
             1259.00,347.00 1250.00,347.00 1250.00,347.00
             1250.00,347.00 1250.00,307.00 1250.00,307.00
             1250.00,307.00 1259.00,307.00 1259.00,307.00 Z
           M 553.00,313.77
           C 538.36,315.94 540.71,338.61 552.00,340.14
             565.84,342.02 566.66,321.01 559.78,315.72
             557.58,314.04 555.61,313.92 553.00,313.77 Z
           M 961.00,313.77
           C 946.36,315.94 948.71,338.61 960.00,340.14
             973.84,342.02 974.66,321.01 967.78,315.72
             965.58,314.04 963.61,313.92 961.00,313.77 Z
           M 1323.00,313.77
           C 1308.36,315.94 1310.71,338.61 1322.00,340.14
             1335.84,342.02 1336.66,321.01 1329.78,315.72
             1327.58,314.04 1325.61,313.92 1323.00,313.77 Z
           M 133.00,314.00
           C 133.00,314.00 133.00,325.00 133.00,325.00
             136.98,324.96 144.85,325.07 145.93,319.99
             146.18,318.81 145.90,317.65 145.13,316.72
             142.91,314.06 136.22,314.03 133.00,314.00 Z
           M 170.00,314.00
           C 170.00,314.00 170.00,323.00 170.00,323.00
             173.32,323.00 185.66,323.74 184.97,318.07
             184.37,313.08 173.54,314.00 170.00,314.00 Z
           M 337.00,314.00
           C 337.00,314.00 337.00,340.00 337.00,340.00
             340.91,339.99 347.45,340.06 350.49,337.28
             354.51,333.59 354.00,319.97 349.77,316.58
             346.69,314.11 340.81,314.03 337.00,314.00 Z
           M 467.00,314.00
           C 467.00,314.00 467.00,325.00 467.00,325.00
             470.98,324.96 478.85,325.07 479.93,319.99
             480.18,318.81 479.90,317.65 479.13,316.72
             476.91,314.06 470.22,314.03 467.00,314.00 Z
           M 504.00,314.00
           C 504.00,314.00 504.00,323.00 504.00,323.00
             507.32,323.00 519.66,323.74 518.97,318.07
             518.37,313.08 507.54,314.00 504.00,314.00 Z
           M 1065.00,314.00
           C 1065.00,314.00 1065.00,340.00 1065.00,340.00
             1068.91,339.99 1075.45,340.06 1078.49,337.28
             1082.51,333.59 1082.00,319.97 1077.77,316.58
             1074.69,314.11 1068.81,314.03 1065.00,314.00 Z
           M 1105.00,314.00
           C 1105.00,314.00 1105.00,323.00 1105.00,323.00
             1108.32,323.00 1120.66,323.74 1119.97,318.07
             1119.37,313.08 1108.54,314.00 1105.00,314.00 Z
           M 291.00,318.00
           C 291.00,318.00 287.00,331.00 287.00,331.00
             287.00,331.00 296.00,331.00 296.00,331.00
             296.00,331.00 291.00,318.00 291.00,318.00 Z
           M 434.00,318.00
           C 434.00,318.00 430.00,331.00 430.00,331.00
             430.00,331.00 439.00,331.00 439.00,331.00
             439.00,331.00 434.00,318.00 434.00,318.00 Z
           M 748.00,318.00
           C 748.00,318.00 744.00,331.00 744.00,331.00
             744.00,331.00 753.00,331.00 753.00,331.00
             753.00,331.00 748.00,318.00 748.00,318.00 Z
           M 1152.00,318.00
           C 1152.00,318.00 1148.00,331.00 1148.00,331.00
             1148.00,331.00 1157.00,331.00 1157.00,331.00
             1157.00,331.00 1152.00,318.00 1152.00,318.00 Z" />
</svg>
